<?xml version="1.0" standalone="no"?><!DOCTYPE svg PUBLIC "-//W3C//DTD SVG 1.1//EN" "http://www.w3.org/Graphics/SVG/1.1/DTD/svg11.dtd"><svg class="icon" width="200px" height="200.00px" viewBox="0 0 1024 1024" version="1.1" xmlns="http://www.w3.org/2000/svg"><path d="M850.9 759.6l-0.1 0.1-53.4 30.8-0.3 0.2 162.8 85zM504.6 549.6l-21.1-12.5L448 516l-16.9-9.9-1.3-0.9h-0.1l-29.1 19.9-19.2 13.2-29.3 20.1 17.2 9-17.2-9 30.7 0.1 33.3 0.2 30.5 0.1 9.5 0.1 34.2 0.1 30.3 0.1z"  /><path d="M663.3 489.4l-20.6-28.2-20.5-28-11.4-15.5-27-36.9-15.1-20.7-27.1-37-18.5-25.1-26.4-36-0.7-1-25.2-34.4-1.3-1.7-26-35.4-27.9-38.1-27.3-37.3-0.1 0.1-20.9-28.5c-1.8 1-10.1 6.4-22.9 14.8l22.2 28.2-37 24.9-24-27.4c-44.9 29.9-106 70.8-155.6 104l31.3 23.2-51.6 34.6-33.8-21.6C76.1 279.7 63.7 288 63.7 288l35.1 20.8 42 24.9 46.9 27.8 42.1 25 12.9 7.6v0.1l45.8 27.1 141.3 83.8 0.1 0.1 1.4 0.8 16.8 10 35.5 21 21.2 12.6 16 9.5-30.3-0.1-34.1-0.2 17.8 10.8-18.6 12.1-23.9-14 15.1-8.9-30.5-0.1-33.3-0.1-30.7-0.1 17.1 9 22.4 11.7 299.7 156.5 0.3-0.1 0.6 0.3 36.8-21.7 51.1-29.3 0.1-0.1-162.5-173.2 45.4-22.2zM632.2 467l10.7 13.7-7.2 3.5-11 5.3-7.9-9-3.1-3.5 18.5-10z m-32.8-41.8l12 15.2-18.7 12.6-13-14.8 19.7-13zM555.2 369l15.9 20.3-21.7 14.6-17.2-19.6 23-15.3z m-47.6-60.7l19.3 24.6-25 16.8-20.9-23.8 26.6-17.6z m-54.8-69.8l26.4 33.6-30.2 17.4-26.9-30.6 30.7-20.4zM395 165l29.3 37.3-32.7 22-31.6-36.1 35-23.2zM215.3 342.9l-45-28.8 48.9-32.5 41.5 30.7-45.4 30.6z m81.4 52.1l-6.9-4.4-33.7-21.6 42.8-28.4 27 20 10.4 7.7-39.6 26.7z m70.6 45.3l-29.8-19.1 37-24.5 27.5 20.4-34.7 23.2z m65.5 42l-24.6-15.8 31.9-21.2 22.7 16.8-30 20.2z m59.6 38.1l-18.6-11.9 27.3-18.1 17.1 12.7-25.8 17.3z m19.2 12.3l26.8-14.6 6.9 5.1 8.3 6.1-26.4 13.3-5.9-3.8-9.7-6.1z m-1.9 80.9l-20.9-12.2 19-11.2 20.1 12.2-18.2 11.2z m57 33.5L544 633.7l18.6-10.3 21.6 13.1-17.5 10.6z m162.9 7.5l8.9 8.6-14.2 9.3-10.2-9.5 15.5-8.4zM691.9 618l10.5 10.1-15.5 9.3-11.4-10.4 16.4-9z m-6.5 79.9l-15.2 9.9-18.7-11 17-9.2 16.9 10.3z m-37.2-122.1l14 13.6-16.4 9.9-14.8-14 17.2-9.5zM636 667.9l-16.7 10-18-10.6 17.8-9.7 16.9 10.3z m-17.8-121.1L601 557.4l-14.5-13.6 17.8-10.5 13.9 13.5zM719.6 749.9h-0.1l-0.2 0.2-0.3 0.1 0.8 0.4v0.1l0.3-0.2 0.2-0.2h0.1-0.1z"  /><path d="M856.3 348.6L568.4 182.3c-7.8-4.5-17.4-4.5-25.2 0l-73.7 42.6 1.3 1.7L496 261l0.7 1 44.2-25.6c9.2-5.3 20.5-5.3 29.7 0l237.7 137.2c9.2 5.3 14.8 15.1 14.8 25.7v274.5c0 10.6-5.7 20.4-14.8 25.7L570.6 836.8c-4.6 2.6-9.7 4-14.8 4-5.1 0-10.2-1.3-14.8-4L303.2 699.6c-9.2-5.3-14.8-15.1-14.8-25.7V421.4l-45.8-27.1v-0.1 308.7c0 9 4.8 17.3 12.6 21.8l287.9 166.2c3.9 2.2 8.3 3.4 12.6 3.4 4.4 0 8.7-1.1 12.6-3.4l287.9-166.2c7.8-4.5 12.6-12.8 12.6-21.8V370.4c0.1-9-4.7-17.3-12.5-21.8z"  /></svg>